<svg width="56" height="56" viewBox="0 0 56 56" fill="none" xmlns="http://www.w3.org/2000/svg">
<path d="M22.7486 48.65C26.902 47.0167 25.992 42.5134 23.892 39.6667C21.8153 36.75 18.9453 34.7434 16.052 32.8067C13.9876 31.5055 12.1443 29.8829 10.592 28C9.93863 27.23 8.60863 25.8067 9.96197 25.5267C11.3386 25.2467 13.7186 26.6 14.932 27.1134C17.0553 28 19.1553 29.0267 21.1153 30.24L23.472 26.2734C19.832 23.87 15.1653 21.7467 10.8253 21.1167C8.35197 20.7434 5.73863 21.2567 4.89863 23.94C4.15197 26.25 5.34197 28.5834 6.6953 30.4034C9.89197 34.6734 14.862 36.7267 18.572 40.4134C19.3653 41.1834 20.322 42.0934 20.7886 43.1667C21.2786 44.1934 21.162 44.2634 20.0653 44.2634C17.172 44.2634 13.5553 42 11.1986 40.5067L8.84197 44.4734C12.412 46.6667 18.3853 50.0967 22.7486 48.65ZM48.6253 12.25C49.1386 11.7367 49.1386 10.8967 48.6253 10.4067L45.592 7.37337C45.3476 7.13783 45.0214 7.00623 44.682 7.00623C44.3425 7.00623 44.0164 7.13783 43.772 7.37337L41.392 9.75337L46.2453 14.6067L48.6253 12.25ZM25.6653 25.48V30.3334H30.5186L44.8686 15.9834L40.0153 11.13L25.6653 25.48Z" fill="#2091F9"/>
</svg>
