<svg width="41" height="41" viewBox="0 0 41 41" fill="none" xmlns="http://www.w3.org/2000/svg">
<path d="M35.2243 4.48291H5.76521C5.05675 4.48291 4.48438 5.05528 4.48438 5.76374V35.2229C4.48438 35.9313 5.05675 36.5037 5.76521 36.5037H35.2243C35.9328 36.5037 36.5052 35.9313 36.5052 35.2229V5.76374C36.5052 5.05528 35.9328 4.48291 35.2243 4.48291ZM31.5259 13.829H28.9683C26.963 13.829 26.5747 14.7816 26.5747 16.1825V19.2685H31.3618L30.7374 24.0996H26.5747V36.5037H21.5835V24.1036H17.4088V19.2685H21.5835V15.7062C21.5835 11.5715 24.1091 9.31805 27.7995 9.31805C29.5687 9.31805 31.0856 9.45013 31.5299 9.51017V13.829H31.5259Z" fill="white"/>
</svg>
