<svg width="41" height="41" viewBox="0 0 41 41" fill="none" xmlns="http://www.w3.org/2000/svg">
<path d="M35.2243 4.48291H5.76521C5.05675 4.48291 4.48438 5.05528 4.48438 5.76374V35.2229C4.48438 35.9313 5.05675 36.5037 5.76521 36.5037H35.2243C35.9328 36.5037 36.5052 35.9313 36.5052 35.2229V5.76374C36.5052 5.05528 35.9328 4.48291 35.2243 4.48291ZM13.9825 31.7686H9.23146V16.4867H13.9825V31.7686ZM11.609 14.3973C11.0644 14.3973 10.5319 14.2358 10.0791 13.9332C9.62622 13.6307 9.27326 13.2006 9.06483 12.6974C8.8564 12.1942 8.80187 11.6405 8.90812 11.1063C9.01438 10.5721 9.27665 10.0815 9.66178 9.69634C10.0469 9.31121 10.5376 9.04894 11.0718 8.94268C11.6059 8.83643 12.1596 8.89096 12.6628 9.09939C13.166 9.30782 13.5961 9.66078 13.8987 10.1136C14.2013 10.5665 14.3628 11.0989 14.3628 11.6436C14.3588 13.1645 13.126 14.3973 11.609 14.3973ZM31.7701 31.7686H27.023V24.3358C27.023 22.5626 26.991 20.2852 24.5534 20.2852C22.0838 20.2852 21.7035 22.2144 21.7035 24.2077V31.7686H16.9605V16.4867H21.5154V18.5761H21.5795C22.2119 17.3753 23.7609 16.1065 26.0744 16.1065C30.8855 16.1065 31.7701 19.2725 31.7701 23.3872V31.7686Z" fill="#2091F9"/>
</svg>
