<svg width="41" height="41" viewBox="0 0 41 41" fill="none" xmlns="http://www.w3.org/2000/svg">
<path d="M37.1455 10.1786C35.9207 10.707 34.5878 11.0872 33.2149 11.2353C34.6403 10.3885 35.7077 9.05071 36.2168 7.47288C34.8793 8.26856 33.414 8.8265 31.886 9.12195C31.2474 8.43922 30.475 7.89532 29.617 7.52415C28.7589 7.15298 27.8337 6.96249 26.8988 6.96456C23.1163 6.96456 20.0744 10.0305 20.0744 13.793C20.0744 14.3213 20.1384 14.8497 20.2425 15.358C14.5788 15.0618 9.52753 12.3561 6.16936 8.21337C5.55746 9.25851 5.2368 10.4485 5.24075 11.6596C5.24075 14.0291 6.44553 16.1185 8.28273 17.3473C7.20004 17.3047 6.14271 17.0071 5.19672 16.4787V16.5628C5.19672 19.8809 7.54225 22.6307 10.6683 23.2631C10.0813 23.4156 9.47753 23.4936 8.87111 23.4953C8.42682 23.4953 8.00655 23.4513 7.58227 23.3912C8.44683 26.097 10.9645 28.0622 13.9624 28.1263C11.6169 29.9635 8.67898 31.0442 5.48891 31.0442C4.91654 31.0442 4.3882 31.0242 3.83984 30.9601C6.86581 32.9014 10.4561 34.0221 14.3226 34.0221C26.8748 34.0221 33.7432 23.6234 33.7432 14.5975C33.7432 14.3013 33.7432 14.0051 33.7232 13.7089C35.0521 12.7363 36.2168 11.5315 37.1455 10.1786Z" fill="white"/>
</svg>
