<svg width="41" height="41" viewBox="0 0 41 41" fill="none" xmlns="http://www.w3.org/2000/svg">
<path d="M37.1455 10.1785C35.9207 10.7068 34.5878 11.087 33.2149 11.2351C34.6403 10.3883 35.7077 9.05052 36.2168 7.4727C34.8793 8.26837 33.414 8.82631 31.886 9.12177C31.2474 8.43903 30.475 7.89514 29.617 7.52396C28.7589 7.15279 27.8337 6.96231 26.8988 6.96437C23.1163 6.96437 20.0744 10.0304 20.0744 13.7928C20.0744 14.3211 20.1384 14.8495 20.2425 15.3578C14.5788 15.0616 9.52753 12.3559 6.16936 8.21318C5.55746 9.25832 5.2368 10.4483 5.24075 11.6594C5.24075 14.029 6.44553 16.1183 8.28273 17.3471C7.20004 17.3045 6.14271 17.0069 5.19672 16.4785V16.5626C5.19672 19.8808 7.54225 22.6305 10.6683 23.2629C10.0813 23.4154 9.47753 23.4934 8.87111 23.4951C8.42682 23.4951 8.00655 23.4511 7.58227 23.391C8.44683 26.0968 10.9645 28.0621 13.9624 28.1261C11.6169 29.9633 8.67898 31.044 5.48891 31.044C4.91654 31.044 4.3882 31.024 3.83984 30.9599C6.86581 32.9012 10.4561 34.0219 14.3226 34.0219C26.8748 34.0219 33.7432 23.6232 33.7432 14.5973C33.7432 14.3011 33.7432 14.0049 33.7232 13.7087C35.0521 12.7361 36.2168 11.5313 37.1455 10.1785Z" fill="#2091F9"/>
</svg>
