<svg width="193" height="63" viewBox="0 0 193 63" fill="none" xmlns="http://www.w3.org/2000/svg">
<g clip-path="url(#clip0_66_4717)">
<path d="M186.989 38.5021L192.344 42.0529C190.606 44.5992 186.45 48.9679 179.264 48.9679C170.341 48.9679 163.695 42.0998 163.695 33.3627C163.695 24.0653 170.411 17.7578 178.512 17.7578C186.661 17.7578 190.653 24.2052 191.944 27.6859L192.649 29.4616L171.656 38.1049C173.253 41.2354 175.742 42.8239 179.264 42.8239C182.786 42.8239 185.228 41.0952 186.989 38.5021ZM170.529 32.8726L184.547 27.0788C183.772 25.1401 181.472 23.7619 178.724 23.7619C175.225 23.7619 170.364 26.8456 170.529 32.8726Z" fill="#FF302F"/>
<path d="M153.574 1.84925H160.337V47.543H153.574V1.84888V1.84925Z" fill="#20B15A"/>
<path d="M142.913 18.9722H149.441V46.7249C149.441 58.2415 142.607 62.9837 134.529 62.9837C126.921 62.9837 122.342 57.8912 120.628 53.7565L126.616 51.28C127.696 53.8262 130.302 56.8401 134.529 56.8401C139.719 56.8401 142.913 53.6395 142.913 47.6594V45.4169H142.678C141.128 47.2855 138.169 48.9674 134.412 48.9674C126.569 48.9674 119.383 42.1694 119.383 33.4094C119.383 24.6021 126.569 17.7344 134.412 17.7344C138.146 17.7344 141.128 19.393 142.678 21.2151H142.913V18.9726V18.9722ZM143.382 33.4094C143.382 27.8961 139.695 23.878 134.999 23.878C130.255 23.878 126.263 27.8961 126.263 33.4094C126.263 38.8521 130.255 42.8001 134.999 42.8001C139.696 42.8237 143.382 38.8521 143.382 33.4094H143.382Z" fill="#3686F7"/>
<path d="M82.259 33.2924C82.259 42.2864 75.2145 48.8973 66.5729 48.8973C57.9316 48.8973 50.8867 42.2632 50.8867 33.2924C50.8867 24.2519 57.9316 17.6643 66.5729 17.6643C75.2145 17.6643 82.259 24.2519 82.259 33.2924ZM75.4022 33.2924C75.4022 27.6862 71.3161 23.8312 66.5729 23.8312C61.8297 23.8312 57.7435 27.6862 57.7435 33.2924C57.7435 38.8522 61.8297 42.7537 66.5729 42.7537C71.3164 42.7537 75.4022 38.8522 75.4022 33.2924Z" fill="#FF302F"/>
<path d="M116.517 33.3627C116.517 42.3567 109.472 48.9676 100.831 48.9676C92.189 48.9676 85.1445 42.3563 85.1445 33.3627C85.1445 24.3222 92.189 17.7578 100.831 17.7578C109.472 17.7578 116.517 24.2989 116.517 33.3627ZM109.636 33.3627C109.636 27.7564 105.551 23.9014 100.807 23.9014C96.0637 23.9014 91.9776 27.7564 91.9776 33.3627C91.9776 38.9224 96.0637 42.8239 100.807 42.8239C105.574 42.8239 109.636 38.8992 109.636 33.3627Z" fill="#FFBA40"/>
<path d="M25.1021 42.1229C15.2629 42.1229 7.56097 34.2269 7.56097 24.4387C7.56097 14.6508 15.2629 6.75481 25.1021 6.75481C30.4092 6.75481 34.2836 8.83381 37.1484 11.4971L41.8686 6.80168C37.8767 2.99393 32.5462 0.0966797 25.1021 0.0966797C11.6234 0.0970547 0.28125 11.0302 0.28125 24.4387C0.28125 37.8479 11.6234 48.7807 25.1021 48.7807C32.3818 48.7807 37.8767 46.3979 42.1739 41.9594C46.5884 37.5674 47.9504 31.4002 47.9504 26.4011C47.9504 24.8358 47.7627 23.2241 47.5512 22.0327H25.1021V28.5269H41.0936C40.6239 32.5919 39.3325 35.3718 37.4304 37.2637C35.1291 39.5767 31.4896 42.1229 25.1021 42.1229Z" fill="#3686F7"/>
</g>
<defs>
<clipPath id="clip0_66_4717">
<rect width="193" height="63" fill="white"/>
</clipPath>
</defs>
</svg>
